<svg xmlns="http://www.w3.org/2000/svg" aria-hidden="true" style="position:absolute;width:0;height:0;overflow:hidden"><defs><symbol id="icon-Group-3" viewBox="0 0 28 32"><path  d="M26.934 31.337H.88V4.047c.001-.892.375-1.747 1.038-2.378S3.48.683 4.418.682h.076c.938.001 1.837.356 2.501.987s1.037 1.486 1.038 2.378v2.552h11.759V4.047c.002-.892.375-1.747 1.038-2.378s1.563-.986 2.501-.987h.076c.938.001 1.837.356 2.501.987s1.037 1.486 1.038 2.378v27.284l-.011.005zM23.395.005h-.076c-1.128.001-2.209.428-3.007 1.185s-1.247 1.785-1.25 2.857v1.869H8.719V4.047c0-1.074-.449-2.103-1.247-2.862S5.591-.001 4.462-.001h-.076C3.261.006 2.185.435 1.391 1.193S.152 2.977.15 4.046v27.952h27.502V4.046c0-1.074-.449-2.103-1.247-2.862s-1.881-1.186-3.01-1.186v.005z" /><path  d="M2.578 26.824h5.52v2.324h-5.52v-2.324zm-.719 3.007h6.957v-3.696H1.859v3.696zM19.781 26.824h5.52v2.324h-5.52v-2.324zm-.719 3.007h6.957v-3.696h-6.957v3.696zM5.638 6.636H3.237V3.825c.021-.289.156-.561.379-.759s.517-.308.822-.308c.305 0 .599.11.822.308s.358.469.379.759v2.811zm.718-2.811c-.061-.44-.287-.843-.638-1.136s-.801-.454-1.267-.454c-.466 0-.917.161-1.267.454s-.577.696-.638 1.136v3.494h3.811V3.825zM24.544 6.636h-2.401V3.825c.02-.289.156-.561.379-.759s.517-.308.822-.308.599.11.822.308c.223.198.358.469.379.759v2.811zm.718-2.811c-.061-.44-.287-.843-.638-1.136s-.801-.454-1.267-.454-.917.161-1.267.454a1.8 1.8 0 0 0-.638 1.136v3.494h3.811V3.825zM5.638 14.841H3.237V12.03c.021-.289.156-.561.379-.759s.517-.308.822-.308c.305 0 .599.11.822.308s.358.469.379.759v2.811zm.718-2.811c-.061-.44-.287-.843-.638-1.136s-.801-.454-1.267-.454c-.466 0-.917.161-1.267.454s-.577.696-.638 1.136v3.494h3.811V12.03zM11.941 14.84H9.535v-2.811c0-.303.127-.594.352-.809s.532-.335.851-.335c.319 0 .625.121.851.335s.352.505.352.809v2.811zm.719-2.81c0-.485-.202-.949-.563-1.292s-.849-.535-1.359-.535-.998.193-1.359.535-.563.807-.563 1.292v3.494h3.843V12.03zM18.245 14.84h-2.406v-2.811c0-.303.127-.594.352-.809s.532-.335.851-.335c.319 0 .625.121.851.335s.352.505.352.809v2.811zm.719-2.81c0-.485-.202-.949-.563-1.292s-.849-.535-1.359-.535-.998.193-1.359.535-.563.807-.563 1.292v3.494h3.843V12.03zM24.544 14.841h-2.401V12.03c.02-.289.156-.561.379-.759s.517-.308.822-.308.599.11.822.308c.223.198.358.469.379.759v2.811zm.718-2.811c-.061-.44-.287-.843-.638-1.136s-.801-.454-1.267-.454-.917.161-1.267.454a1.8 1.8 0 0 0-.638 1.136v3.494h3.811V12.03zM3.237 19.059c.021-.289.156-.561.379-.759s.517-.308.822-.308c.305 0 .599.11.822.308s.358.469.379.759v2.805H3.238v-2.805zm-.724 3.479h3.811V19.06c-.061-.44-.287-.843-.638-1.136s-.801-.454-1.267-.454-.917.161-1.267.454a1.803 1.803 0 0 0-.638 1.136v3.478zM9.535 19.059c0-.303.127-.594.352-.809s.532-.335.851-.335c.319 0 .625.12.851.335s.352.506.352.809v2.805H9.535v-2.805zm-.718 3.489h3.843v-3.489c0-.485-.202-.949-.563-1.292s-.849-.535-1.359-.535-.998.192-1.359.535c-.36.343-.563.808-.563 1.292v3.489zM15.839 19.059c0-.303.127-.594.352-.809s.532-.335.851-.335c.319 0 .625.12.851.335s.352.506.352.809v2.805h-2.406v-2.805zm-.718 3.489h3.843v-3.489c0-.485-.202-.949-.563-1.292s-.849-.535-1.359-.535-.998.192-1.359.535-.563.808-.563 1.292v3.489zM22.143 19.059c.021-.289.156-.561.379-.759s.517-.308.822-.308.599.11.822.308c.223.198.358.469.379.759v2.805h-2.401v-2.805zm-.718 3.489h3.811v-3.489c-.061-.44-.287-.843-.638-1.136s-.801-.454-1.267-.454-.917.161-1.267.454c-.35.293-.577.696-.638 1.136v3.489zM10.531 30.654h.719V26.58h2.417v4.074h.719V26.58h2.417v4.074h.718v-4.757h-6.99v4.757zM1.587 9.1h24.628v-.683H1.587V9.1zM18.349 3.929a4.75 4.75 0 0 1 .071-.683H9.383c.04.226.064.454.071.683h8.895zM1.587 25.043h24.628v-.683H1.587v.683z" /></symbol><symbol id="icon-Group-6" viewBox="0 0 38 32"><path  d="M2.315 11.401c.302.373.705.581 1.123.58.215-.002.428-.06.626-.171s.375-.272.523-.473l.717-.947c.268.079.546.068.81-.031s.503-.284.695-.536l1.545-2.037 1.083-1.405-.868-.052-2.207 2.913c-.129.165-.292.279-.469.329s-.363.034-.534-.046c-.06-.03-.126-.036-.189-.019s-.121.057-.167.116l-.853 1.134c-.089.115-.194.206-.31.269a.765.765 0 0 1-.734 0 .972.972 0 0 1-.31-.269 1.141 1.141 0 0 1-.206-.38c-.026-.077-.068-.142-.123-.188s-.118-.07-.183-.07h-.08c-.167 0-.331-.051-.479-.149s-.276-.239-.374-.412a1.179 1.179 0 0 1-.11-.232 2.052 2.052 0 0 1-.752-.393c.03.522.204 1.013.489 1.386s.665.604 1.07.651c.075.157.164.302.266.432z" /><path  d="M12.862.012h-.326a4.167 4.167 0 0 0-.632 0c-1.279.135-5.201.999-5.367 1.031-.166.071-.883.503-5.587 3.326-.347.225-.625.594-.789 1.048s-.204.965-.115 1.451c.09.486.305.92.61 1.23s.683.479 1.072.48c.265.001.526-.079.762-.232l4.479-2.862 4.92.058 1.896.87-3.511.645c-.434.074-.83.356-1.108.789s-.419.987-.393 1.548c.026.561.217 1.089.533 1.477s.736.607 1.173.614h.206l6.43-1.115c.231-.033.465-.018.692.045l2.131.599a5.68 5.68 0 0 0 2.588.116l.627-.116v-.857l-.727.135a5.18 5.18 0 0 1-2.322-.097l-2.127-.599a2.193 2.193 0 0 0-.918-.058l-6.435 1.121c-.139.019-.28.002-.415-.05s-.259-.137-.368-.25c-.109-.114-.199-.254-.265-.413s-.107-.333-.121-.512c-.016-.177-.005-.357.034-.529s.103-.332.189-.472c.087-.14.194-.256.316-.342s.256-.14.394-.159l4.825-.909c.073-.013.14-.056.191-.124s.083-.156.09-.25c.008-.094-.009-.19-.048-.27s-.098-.142-.167-.175l-3.2-1.502a.338.338 0 0 0-.11 0l-5.056-.058a.295.295 0 0 0-.15.045L2.214 7.596c-.256.155-.549.175-.815.054S.913 7.278.79 6.951c-.123-.32-.143-.689-.055-1.028s.275-.62.522-.783l5.452-3.261c.426-.09 4.083-.889 5.271-1.012.182-.016.365-.016.547 0h.341c1.179.032 5.281.251 8.496 1.689h.055l1.805.4v-.864l-1.675-.367C18.339.301 14.417.049 12.877.004l-.015.006zM37.458 11.749h-9.389V1.314h9.389v10.435zM37.789.463H27.758c-.088 0-.172.045-.234.125s-.097.188-.097.301v11.286c0 .113.035.221.097.301s.146.125.234.125h10.031c.087-.002.171-.047.233-.126s.097-.187.098-.299V.89c-.001-.112-.037-.22-.098-.299s-.145-.125-.233-.126zM24.202 1.088c-.086 0-.169.044-.23.123s-.095.185-.095.296l-.05 10.035c-.001.055.007.11.023.161s.041.097.072.135c.03.041.065.073.105.095s.083.034.126.034h2.593v-.851h-2.257l.045-9.185h2.212v-.825h-2.538l-.005-.019zM2.31 31.033c.389-.641.893-1.15 1.47-1.482.066-.038.121-.1.16-.178s.06-.168.06-.261v-1.289h14.811v1.289c0 .092.02.182.058.259s.093.14.157.179c.578.329 1.083.839 1.47 1.482H2.31zm17.253-2.217v-1.47c-.001-.128-.041-.25-.112-.34s-.165-.142-.265-.143H3.638c-.099.002-.194.053-.265.143s-.11.212-.112.34v1.47c-.537.361-1.801 1.36-1.801 2.701.001.128.041.25.112.34s.165.142.265.143h19.159c.102-.005.198-.061.269-.156s.109-.222.107-.353c0-1.289-1.259-2.314-1.796-2.675h-.015zM11.363 13.798h.085c.295.002.582.13.815.363s.4.559.474.926h-2.663c.073-.368.24-.694.473-.928s.52-.36.816-.361zm1.8 2.231c.102-.005.198-.061.269-.156s.109-.222.107-.353c0-.353-.054-.702-.159-1.029s-.259-.622-.453-.872-.425-.448-.678-.583-.526-.205-.8-.205h-.085c-.276.001-.549.072-.804.209s-.486.337-.68.589c-.194.252-.348.551-.452.88s-.157.681-.155 1.035c0 .128.04.251.11.342s.166.142.266.142h3.516zM11.353 17.524h.075c3.18 0 6.881 1.992 7.082 7.56H4.296c.206-5.524 3.887-7.535 7.057-7.56zm-7.799 8.044c-.001.064.009.127.027.186s.046.113.081.158.077.081.123.105.095.036.145.035h14.981c.1 0 .195-.051.266-.141s.11-.214.11-.342c0-6.652-4.228-9.023-7.844-9.023h-.08c-3.887.032-7.809 2.836-7.809 9.023z" /><path  d="M5.164 24.627h.07c.088.001.173-.038.241-.11s.114-.172.13-.283c.17-1 .524-1.932 1.034-2.717s1.16-1.401 1.895-1.795c.045-.026.086-.064.12-.111s.06-.102.077-.162a.59.59 0 0 0-.016-.372c-.043-.115-.12-.204-.214-.247s-.197-.038-.288.015c-.845.453-1.592 1.164-2.175 2.071s-.985 1.984-1.171 3.137a.599.599 0 0 0 .055.364.434.434 0 0 0 .104.133.322.322 0 0 0 .136.07v.006zM18.099 28.681H4.693c-.1 0-.195.051-.266.141s-.11.214-.11.342.04.251.11.342a.34.34 0 0 0 .266.142h13.406c.1 0 .195-.051.266-.142s.11-.214.11-.342-.04-.251-.11-.342a.337.337 0 0 0-.266-.141z" /></symbol><symbol id="icon-Group-1" viewBox="0 0 36 32"><path  d="M7.687 1.451c.457-.254.96-.401 1.475-.431a.64.64 0 0 1 .4.086c.037.139-.319.816-1.394 1.38a3.386 3.386 0 0 1-1.469.425.64.64 0 0 1-.4-.086c-.037-.139.313-.809 1.387-1.373zm-.988 2.461a4.208 4.208 0 0 0 1.875-.531 4.6 4.6 0 0 0 1.469-1.168c.581-.736.469-1.28.344-1.539-.122-.23-.307-.416-.53-.534s-.474-.163-.72-.129a4.29 4.29 0 0 0-1.875.531 4.642 4.642 0 0 0-1.475 1.174c-.196.189-.333.437-.393.711s-.038.561.061.821c.122.23.307.416.529.534s.474.163.721.129h-.006zM9.087 4.416a13.908 13.908 0 0 1 6.55-1.632c2.669-.009 5.291.75 7.586 2.198s4.177 3.529 5.445 6.022L2.131 24.935c-1.555-3.712-1.7-7.917-.404-11.739s3.933-6.965 7.36-8.773v-.007zM1.693 26.262l28.244-14.814-.212-.444c-1.903-3.876-5.161-6.808-9.075-8.166s-8.174-1.035-11.866.901C5.092 5.674 2.26 9.068.896 13.192s-1.151 8.652.591 12.612l.206.445v.013z" /><path  d="M3.099 23.847a.356.356 0 0 0 .163-.033c.061-.022.117-.057.164-.103a.5.5 0 0 0 .15-.362.514.514 0 0 0-.039-.198c-.834-2.529-.979-5.257-.417-7.869s1.807-5.003 3.592-6.898a.526.526 0 0 0 .159-.588.512.512 0 0 0-.116-.179.46.46 0 0 0-.381-.128.476.476 0 0 0-.335.232C4.13 9.749 2.8 12.309 2.203 15.105s-.437 5.714.461 8.418c.033.095.093.177.171.235s.171.089.267.09zM34.924 31.27H1.387c-.106-.014-.204-.068-.275-.153a.482.482 0 0 1 0-.616.432.432 0 0 1 .275-.153h33.537c.106.014.204.068.275.153s.11.194.11.308c0 .113-.039.223-.11.308s-.169.139-.275.153zm0-1.652H1.387c-.283.022-.548.158-.741.378s-.3.511-.3.812c0 .301.107.591.3.812s.458.356.741.379h33.537c.283-.022.548-.158.741-.379s.301-.511.301-.812-.107-.591-.301-.812a1.098 1.098 0 0 0-.741-.378zM31.905 21.823l-.625 5.267c-.038.287-.172.549-.377.739s-.469.295-.742.295h-3.038c-.273 0-.536-.105-.742-.295s-.339-.453-.377-.739l-.625-5.267h6.525zm-6.612 5.361c.059.463.273.888.604 1.197s.755.48 1.196.482h3.037c.441-.001.866-.171 1.197-.48s.545-.735.603-1.198l.756-6.09h-8.125l.756 6.09h-.025zM32.812 26.912a.605.605 0 0 1-.144-.046l-.05.438c0 .106-.044.199-.063.299l.137.033c.079.007.158.007.238 0 .969 0 1.875-1.081 2.094-2.461a3.489 3.489 0 0 0-.462-2.428c-.117-.175-.266-.324-.437-.438s-.363-.19-.563-.225a1.444 1.444 0 0 0-.294 0l-.094.75a.731.731 0 0 1 .162 0h.125a.88.88 0 0 1 .544.391c.334.56.455 1.233.338 1.884-.156 1.061-.888 1.944-1.531 1.831v-.027zM28.699 14.248a.439.439 0 0 0-.362-.013.464.464 0 0 0-.262.265c-.744 1.785-.362 2.607 0 3.317.196.346.299.741.299 1.144s-.103.799-.299 1.144a.534.534 0 0 0-.008.388.492.492 0 0 0 .257.275.448.448 0 0 0 .444-.042.495.495 0 0 0 .175-.223 3.34 3.34 0 0 0-.043-3.112c-.294-.63-.525-1.134.037-2.488a.521.521 0 0 0-.085-.551.475.475 0 0 0-.151-.113v.007zM26.706 14.248a.439.439 0 0 0-.362-.013.478.478 0 0 0-.263.265c-.744 1.785-.362 2.607 0 3.317.196.346.299.741.299 1.144s-.103.799-.299 1.144a.534.534 0 0 0-.008.388.492.492 0 0 0 .257.275.476.476 0 0 0 .181.04c.095.003.189-.026.268-.081s.141-.136.175-.23c.247-.478.373-1.016.366-1.561s-.146-1.079-.404-1.55c-.294-.63-.525-1.134.037-2.488a.542.542 0 0 0 .013-.385c-.022-.062-.056-.118-.098-.166s-.094-.086-.151-.113l-.012.013zM30.08 17.843c.194.346.296.742.296 1.144s-.102.798-.296 1.144a.522.522 0 0 0 .082.566.463.463 0 0 0 .344.153.448.448 0 0 0 .34-.161.51.51 0 0 0 .098-.173c.246-.479.372-1.017.364-1.562s-.148-1.079-.408-1.55c-.294-.63-.525-1.134.044-2.488.05-.122.053-.261.007-.385s-.136-.224-.251-.278a.435.435 0 0 0-.362-.013.478.478 0 0 0-.263.265c-.738 1.785-.356 2.607 0 3.317l.006.02zM17.787 28.278v.61h.694v-.544l5-1.373c.114-.034.212-.111.278-.216a.546.546 0 0 0-.082-.679.481.481 0 0 0-.32-.134H3.982c-.118.004-.231.052-.318.137s-.143.199-.157.323.014.25.079.354c.065.104.164.18.277.214l4.95 1.36v.557h.694v-.663c-.001-.13-.042-.256-.116-.359s-.178-.177-.296-.212l-3.556-.995h16.25l-3.569.975c-.136.039-.256.126-.34.246s-.127.268-.122.417l.031-.02zM16.868 24.696l1.181.517h1.806l-2.725-1.194a8.769 8.769 0 0 0-6.956 0L7.33 25.24h1.838l1.25-.544a8.135 8.135 0 0 1 6.437 0h.013z" /></symbol></defs></svg>